<?xml version="1.0" encoding="UTF-8" standalone="no"?>
<svg xmlns="http://www.w3.org/2000/svg" xmlns:cc="http://creativecommons.org/ns#" xmlns:dc="http://purl.org/dc/elements/1.1/" xmlns:rdf="http://www.w3.org/1999/02/22-rdf-syntax-ns#" xmlns:svg="http://www.w3.org/2000/svg" id="svg17" version="1.1" viewBox="0 0 841.88977 595.27557">
   <metadata id="metadata23">
      <rdf:RDF>
         <cc:Work rdf:about="">
            <dc:format>
               image/svg+xml
            </dc:format>
            <dc:type rdf:resource="http://purl.org/dc/dcmitype/StillImage"/>
         </cc:Work>
      </rdf:RDF>
   </metadata>
   <defs id="defs21"/>
   <g id="Layer1000">
      <path id="path2" d="m 250.7168,259.5202 c 1.9398,5.1595 7.0062,8.8496 12.9697,8.8496 7.634,-4e-4 13.823,-6.0343 13.823,-13.479 4e-4,-7.4432 -6.189,-13.4774 -13.823,-13.4774 -5.9635,0 -11.0311,3.6897 -12.9697,8.8491 H 231.4485 V 227.498 c -5.3066,0.5381 -10.5917,1.2691 -15.8251,2.2383 v 58.4042 l -19.242,10.831 c 3.1015,4.0673 6.0395,8.3451 9.0196,12.7399 l 21.4225,-12.0593 18.8144,10.7516 c -0.0909,0.6256 -0.1548,1.2592 -0.1548,1.9092 0,7.444 6.1889,13.4774 13.823,13.4774 7.634,0 13.8229,-6.033 13.8229,-13.4774 4e-4,-7.4436 -6.1889,-13.4774 -13.8229,-13.4774 -3.5217,-4e-4 -6.7267,1.2955 -9.1674,3.4092 l -18.6902,-10.6816 v -32.0429 z" style="fill:#00aed0;fill-rule:evenodd"/>
      <path id="path4" d="m 97.4896,232.9441 c -5.2753,-0.9619 -10.5505,-1.9651 -15.8254,-3.0374 v 20.3558 H 62.3947 c -1.9386,-5.1594 -7.005,-8.8491 -12.9685,-8.8491 -7.6341,0 -13.823,6.0342 -13.823,13.4774 0,7.4444 6.1889,13.479 13.823,13.479 5.9635,-4e-4 11.0299,-3.6901 12.9685,-8.8492 l 19.2695,-4e-4 v 32.0429 L 62.974,302.2447 c -2.4419,-2.1137 -5.6457,-3.4092 -9.1674,-3.4092 -7.6348,-4e-4 -13.8237,6.0342 -13.8237,13.4774 0,7.444 6.1889,13.4774 13.8237,13.4774 7.6341,0 13.823,-6.033 13.823,-13.4774 0,-0.65 -0.0635,-1.2836 -0.1549,-1.9088 l 18.8149,-10.752 20.0961,11.3122 c 4.4554,-3.5766 9.0087,-7.0355 13.8081,-10.0434 L 97.4896,288.1405 Z" style="fill:#ee7304;fill-rule:evenodd"/>
      <path id="path6" d="m 137.2441,181.4469 -12.3383,6.9456 -11.88,-17.4774 c 2.0091,-2.3403 3.2214,-5.3521 3.2214,-8.6428 4e-4,-7.4436 -6.1889,-13.4778 -13.8229,-13.4778 -7.6341,0 -13.823,6.0342 -13.823,13.4778 0,7.4432 6.1889,13.4774 13.823,13.4774 0.8035,-4e-4 1.5874,-0.081 2.3533,-0.209 l 11.8886,17.4897 -30.2759,17.0425 -31.5313,-18.0197 c 0.3371,-1.1652 0.5295,-2.3892 0.5295,-3.6599 0,-7.444 -6.1889,-13.4778 -13.8233,-13.4778 -7.6345,0 -13.8234,6.0342 -13.8234,13.4778 0,7.4436 6.1889,13.4778 13.8234,13.4778 2.8506,-4e-4 5.4987,-0.8426 7.6995,-2.2841 l 32.3995,18.5165 v 11.8032 c 5.2749,1.0723 10.5501,2.0755 15.825,3.0374 l 4e-4,-11.3022 46.7097,-26.293 c -2.0785,-4.7147 -4.3283,-9.3597 -6.9552,-13.902 z" style="fill:#d10d80;fill-rule:evenodd"/>
      <path id="path8" d="m 212.3589,333.6272 c -1.1077,0 -2.1781,0.1402 -3.2093,0.3802 l -11.9992,-17.6532 8.2506,-4.6428 c -2.9797,-4.3948 -5.9181,-8.6726 -9.0196,-12.7399 l -39.8251,22.4183 -36.3625,-20.4693 c -4.7994,3.0079 -9.3527,6.4676 -13.8081,10.0442 l 9.5754,5.3895 -11.998,17.6532 c -1.0312,-0.24 -2.1028,-0.3802 -3.2089,-0.3802 -7.6341,0 -13.8234,6.0342 -13.8234,13.4774 0,7.4428 6.1893,13.4774 13.8234,13.4774 7.6352,0 13.8229,-6.0342 13.8229,-13.4774 0,-2.9903 -1.0108,-5.7445 -2.7021,-7.9797 l 12.3257,-18.1314 27.6075,15.5403 V 369.5 c -5.2917,1.8901 -9.0764,6.8314 -9.0764,12.6459 4e-4,7.4428 6.1893,13.4774 13.8234,13.4774 7.6367,0 13.8257,-6.0342 13.8257,-13.4774 0,-5.8145 -3.7847,-10.7542 -9.0776,-12.6444 v -32.9677 l 27.6075,-15.5403 12.3253,18.1314 c -1.6897,2.2352 -2.7017,4.9897 -2.7017,7.9797 0,7.4428 6.1889,13.4774 13.8245,13.4774 7.634,0 13.8229,-6.0342 13.8229,-13.4774 0,-7.4432 -6.1893,-13.4774 -13.8229,-13.4774 z" style="fill:#ffce00;fill-rule:evenodd"/>
      <path id="path10" d="m 271.5475,174.9155 c -7.6356,0 -13.8234,6.0342 -13.8234,13.4778 4e-4,1.2703 0.1925,2.4947 0.53,3.6599 l -31.5318,18.0197 -30.2771,-17.0425 11.8899,-17.4901 c 0.7659,0.128 1.5486,0.2094 2.3533,0.2094 7.634,-4e-4 13.8229,-6.0342 13.8229,-13.4774 0,-7.4436 -6.1889,-13.4778 -13.8229,-13.4778 -7.6352,0 -13.8245,6.0342 -13.8245,13.4778 3e-4,3.2903 1.2142,6.3029 3.2234,8.6432 l -11.8817,17.477 -26.9023,-15.1432 v -42.6935 c 5.2933,-1.8898 9.0776,-6.8295 9.0776,-12.644 0,-7.4436 -6.1893,-13.4778 -13.8257,-13.4778 -7.6341,0 -13.8234,6.0342 -13.8234,13.4778 4e-4,5.8141 3.7847,10.755 9.0764,12.6447 v 42.6928 l -14.5641,8.1976 c 2.6272,4.5419 4.8767,9.1873 6.9548,13.902 l 12.3574,-6.9556 59.0671,33.2486 v 8.094 c 5.2338,-0.9688 10.5185,-1.6995 15.8251,-2.2375 v -9.3949 l 32.3999,-18.5169 c 2.2,1.4419 4.8476,2.2845 7.6991,2.2845 7.6336,-4e-4 13.8229,-6.0342 13.8229,-13.4778 0,-7.444 -6.1893,-13.4778 -13.8229,-13.4778 z" style="fill:#10388c;fill-rule:evenodd"/>
      <path id="path12" d="M 176.4882,274.8973 H 136.6244 V 236.03 h 39.8638 z" style="fill:#a6c500;fill-rule:evenodd"/>
   </g>
   <path id="path15" d="m 379.0543,215.3228 c 0.2355,0.6738 0.3762,1.2225 0.3917,1.6297 0.0163,0.4236 -0.1095,0.7368 -0.3443,0.9404 -0.251,0.2199 -0.6582,0.3606 -1.2224,0.4235 -0.5642,0.063 -1.3165,0.0941 -2.2724,0.0941 -0.9404,0 -1.709,-0.0311 -2.2732,-0.0785 -0.5642,-0.0467 -0.987,-0.1252 -1.2846,-0.2192 -0.2977,-0.1096 -0.5021,-0.2666 -0.6427,-0.4391 -0.1415,-0.1881 -0.2666,-0.4228 -0.3917,-0.6893 l -5.0935,-14.466 h -24.7003 l -4.8743,14.2779 c -0.0941,0.2821 -0.2192,0.5168 -0.3606,0.7049 -0.1563,0.2036 -0.3762,0.3761 -0.6738,0.5176 -0.2821,0.1251 -0.7049,0.2347 -1.238,0.2976 -0.5332,0.063 -1.2225,0.0941 -2.0844,0.0941 -0.8937,0 -1.6141,-0.0467 -2.1784,-0.1252 -0.5642,-0.0785 -0.9722,-0.2199 -1.1913,-0.4391 -0.2355,-0.2036 -0.3451,-0.5175 -0.3295,-0.9403 0.0163,-0.4073 0.1414,-0.9559 0.3924,-1.6297 l 19.9193,-55.1835 c 0.1259,-0.345 0.2821,-0.6116 0.4865,-0.8307 0.2036,-0.2192 0.4857,-0.3762 0.8774,-0.5013 0.3761,-0.1259 0.8619,-0.2044 1.4735,-0.251 0.5953,-0.0474 1.3476,-0.0785 2.2724,-0.0785 0.9714,0 1.7867,0.0311 2.4294,0.0785 0.6419,0.0466 1.1595,0.1251 1.5512,0.251 0.4072,0.1251 0.7056,0.2976 0.9248,0.5324 0.2192,0.2199 0.3761,0.502 0.5013,0.8463 z M 353.4766,166.6123 H 353.43 l -10.2344,29.6213 h 20.6568 z m 83.0603,50.2306 c 0,0.2511 -0.0622,0.4702 -0.1726,0.6583 -0.1095,0.2036 -0.3132,0.3606 -0.6108,0.4857 -0.3132,0.1259 -0.7212,0.2199 -1.238,0.2984 -0.5332,0.0785 -1.207,0.1252 -2.0222,0.1252 -1.081,0 -1.9429,-0.0467 -2.6174,-0.1407 -0.6738,-0.0941 -1.1751,-0.2666 -1.5202,-0.502 -0.3287,-0.2511 -0.6108,-0.5332 -0.8307,-0.8308 l -21.8474,-29.7153 v 29.7153 c 0,0.2036 -0.063,0.4235 -0.1881,0.6116 -0.1251,0.2036 -0.3287,0.3606 -0.6427,0.4702 -0.2977,0.1095 -0.7049,0.188 -1.2225,0.2665 -0.5012,0.0785 -1.1284,0.1252 -1.8962,0.1252 -0.7368,0 -1.3632,-0.0467 -1.8807,-0.1252 -0.5169,-0.0785 -0.9404,-0.157 -1.2381,-0.2665 -0.3132,-0.1096 -0.5331,-0.2666 -0.6427,-0.4702 -0.1251,-0.1881 -0.188,-0.408 -0.188,-0.6116 v -57.0323 c 0,-0.2355 0.0629,-0.4547 0.188,-0.6427 0.1096,-0.1881 0.3295,-0.3295 0.6427,-0.4391 0.2977,-0.1096 0.7212,-0.1881 1.2381,-0.2666 0.5175,-0.0777 1.1439,-0.1251 1.8807,-0.1251 0.7678,0 1.395,0.0474 1.8962,0.1251 0.5176,0.0785 0.9248,0.157 1.2225,0.2666 0.314,0.1096 0.5176,0.251 0.6427,0.4391 0.1251,0.188 0.1881,0.4072 0.1881,0.6427 v 26.4085 l 21.0329,-26.4085 c 0.1725,-0.2666 0.3917,-0.5021 0.6427,-0.6901 0.2347,-0.1881 0.5324,-0.3288 0.893,-0.4384 0.345,-0.094 0.7833,-0.188 1.2854,-0.251 0.5012,-0.0629 1.1595,-0.094 1.9429,-0.094 0.7997,0 1.4424,0.0474 1.9281,0.1251 0.5013,0.0785 0.8774,0.1725 1.1751,0.2984 0.2984,0.1251 0.4864,0.2658 0.596,0.4539 0.1096,0.1881 0.1562,0.3761 0.1562,0.5961 0,0.4072 -0.094,0.7989 -0.2976,1.1906 -0.1881,0.408 -0.5642,0.9566 -1.1129,1.6615 l -19.7001,23.5564 21.2047,28.1944 c 0.5175,0.7841 0.8308,1.3328 0.9403,1.6304 0.1104,0.2822 0.1726,0.5169 0.1726,0.7049 z m 63.3912,-1.5201 c 0.2354,0.6738 0.3761,1.2225 0.3917,1.6297 0.0163,0.4236 -0.1096,0.7368 -0.3443,0.9404 -0.251,0.2199 -0.6583,0.3606 -1.2225,0.4235 -0.5642,0.063 -1.3165,0.0941 -2.2724,0.0941 -0.9404,0 -1.7089,-0.0311 -2.2732,-0.0785 -0.5642,-0.0467 -0.987,-0.1252 -1.2846,-0.2192 -0.2977,-0.1096 -0.502,-0.2666 -0.6427,-0.4391 -0.1414,-0.1881 -0.2666,-0.4228 -0.3917,-0.6893 l -5.0935,-14.466 h -24.7003 l -4.8743,14.2779 c -0.094,0.2821 -0.2192,0.5168 -0.3606,0.7049 -0.1562,0.2036 -0.3762,0.3761 -0.6738,0.5176 -0.2821,0.1251 -0.7049,0.2347 -1.238,0.2976 -0.5331,0.063 -1.2225,0.0941 -2.0844,0.0941 -0.8937,0 -1.6141,-0.0467 -2.1783,-0.1252 -0.5642,-0.0785 -0.9722,-0.2199 -1.1914,-0.4391 -0.2355,-0.2036 -0.345,-0.5175 -0.3295,-0.9403 0.0163,-0.4073 0.1414,-0.9559 0.3924,-1.6297 l 19.9193,-55.1835 c 0.1259,-0.345 0.2821,-0.6116 0.4865,-0.8307 0.2036,-0.2192 0.4857,-0.3762 0.8774,-0.5013 0.3762,-0.1259 0.8619,-0.2044 1.4735,-0.251 0.5953,-0.0474 1.3476,-0.0785 2.2724,-0.0785 0.9715,0 1.7867,0.0311 2.4294,0.0785 0.6419,0.0466 1.1595,0.1251 1.5512,0.251 0.4072,0.1251 0.7056,0.2976 0.9248,0.5324 0.2192,0.2199 0.3762,0.502 0.5013,0.8463 z m -25.5778,-48.7105 h -0.0466 l -10.2344,29.6213 h 20.6568 z m 89.9878,20.9389 c 0,5.1401 -0.6582,9.6383 -1.9747,13.4782 -1.3165,3.8399 -3.2446,7.0216 -5.7673,9.545 -2.5234,2.5227 -5.6266,4.4197 -9.294,5.6732 -3.6674,1.2536 -8.056,1.8807 -13.1339,1.8807 H 521.583 c -0.7049,0 -1.3632,-0.2354 -1.9903,-0.7056 -0.6272,-0.4857 -0.9404,-1.3165 -0.9404,-2.5071 v -52.9895 c 0,-1.1907 0.3132,-2.0214 0.9404,-2.5072 0.6271,-0.4702 1.2854,-0.7056 1.9903,-0.7056 h 13.4626 c 5.1409,0 9.4821,0.6582 13.0399,1.9903 3.5423,1.332 6.5196,3.2446 8.9334,5.7517 2.3983,2.4923 4.2161,5.517 5.4541,9.0593 1.238,3.5578 1.8651,7.5695 1.8651,12.0366 z m -8.3062,0.3132 c 0,-3.2128 -0.408,-6.2064 -1.1914,-8.9645 -0.7997,-2.7744 -2.0532,-5.172 -3.7459,-7.1941 -1.7082,-2.0214 -3.8554,-3.5889 -6.4573,-4.7329 -2.6012,-1.1284 -5.9554,-1.6927 -10.0456,-1.6927 h -8.0404 v 46.2345 h 8.1182 c 3.8088,0 7.006,-0.4701 9.6079,-1.4268 2.6012,-0.9403 4.764,-2.3975 6.5196,-4.3567 1.7393,-1.9592 3.0558,-4.4197 3.9184,-7.3659 0.8774,-2.9625 1.3165,-6.4574 1.3165,-10.5009 z m 62.325,27.0038 c 0,0.5487 -0.0319,1.0344 -0.0941,1.4424 -0.0474,0.4228 -0.1569,0.7678 -0.3139,1.0344 -0.1562,0.2821 -0.3288,0.4701 -0.5324,0.5953 -0.1881,0.1251 -0.4235,0.188 -0.6582,0.188 h -28.5247 c -0.7049,0 -1.3632,-0.2354 -1.9903,-0.7056 -0.6272,-0.4857 -0.9404,-1.3165 -0.9404,-2.5071 v -52.9895 c 0,-1.1907 0.3132,-2.0214 0.9404,-2.5072 0.6271,-0.4702 1.2854,-0.7056 1.9903,-0.7056 h 28.1952 c 0.251,0 0.4701,0.0629 0.6738,0.1881 0.188,0.1251 0.3606,0.3132 0.4701,0.5953 0.1259,0.2665 0.2355,0.6116 0.314,1.0344 0.0622,0.4079 0.1096,0.9248 0.1096,1.5364 0,0.5486 -0.0474,1.0344 -0.1096,1.4416 -0.0785,0.4235 -0.1881,0.7523 -0.314,1.0189 -0.1095,0.251 -0.2821,0.439 -0.4701,0.5642 -0.2037,0.1251 -0.4228,0.188 -0.6738,0.188 h -23.2269 v 18.6347 h 19.9201 c 0.251,0 0.4701,0.0785 0.6738,0.2191 0.188,0.1259 0.3606,0.3295 0.5012,0.5643 0.1415,0.251 0.2355,0.5805 0.2984,1.0188 0.0622,0.4235 0.0941,0.9248 0.0941,1.5046 0,0.5486 -0.0319,1.0344 -0.0941,1.4261 -0.0629,0.4079 -0.1569,0.7211 -0.2984,0.9722 -0.1406,0.2347 -0.3132,0.4227 -0.5012,0.5168 -0.2037,0.1096 -0.4228,0.1725 -0.6738,0.1725 h -19.9201 v 21.2521 h 23.5564 c 0.2347,0 0.4701,0.0629 0.6582,0.1881 0.2036,0.1251 0.3762,0.3132 0.5324,0.5642 0.157,0.2665 0.2665,0.5953 0.3139,1.0188 0.0622,0.4073 0.0941,0.9248 0.0941,1.5357 z m 86.2722,2.0688 c 0,0.2354 -0.0629,0.4546 -0.188,0.6427 -0.1252,0.1881 -0.3288,0.3295 -0.6427,0.4391 -0.2977,0.1095 -0.6894,0.188 -1.1596,0.2665 -0.4857,0.0785 -1.0973,0.1252 -1.8651,0.1252 -0.7049,0 -1.3165,-0.0467 -1.8178,-0.1252 -0.502,-0.0785 -0.8937,-0.157 -1.1914,-0.2665 -0.2976,-0.1096 -0.5013,-0.251 -0.6271,-0.4391 -0.1096,-0.1881 -0.1718,-0.4073 -0.1718,-0.6427 v -51.7508 h -0.094 l -21.1744,51.9707 c -0.094,0.2192 -0.2192,0.4072 -0.3917,0.5642 -0.1562,0.1407 -0.4072,0.2821 -0.7204,0.3917 -0.3295,0.094 -0.7057,0.1725 -1.1603,0.2192 -0.4383,0.0474 -0.9714,0.0785 -1.5831,0.0785 -0.6419,0 -1.1906,-0.0311 -1.6452,-0.0941 -0.4702,-0.0629 -0.8463,-0.157 -1.1595,-0.251 -0.2984,-0.1096 -0.5332,-0.2503 -0.7057,-0.3917 -0.1725,-0.157 -0.2821,-0.3287 -0.345,-0.5168 l -20.2488,-51.9707 h -0.0467 v 51.7508 c 0,0.2354 -0.0629,0.4546 -0.188,0.6427 -0.1104,0.1881 -0.3295,0.3295 -0.6427,0.4391 -0.2977,0.1095 -0.6901,0.188 -1.1914,0.2665 -0.4857,0.0785 -1.1129,0.1252 -1.8807,0.1252 -0.7367,0 -1.3476,-0.0467 -1.8333,-0.1252 -0.4865,-0.0785 -0.8782,-0.157 -1.1759,-0.2665 -0.2821,-0.1096 -0.4857,-0.251 -0.5953,-0.4391 -0.1096,-0.1881 -0.1569,-0.4073 -0.1569,-0.6427 v -54.6504 c 0,-1.2854 0.3295,-2.1939 1.0033,-2.7425 0.6738,-0.5487 1.426,-0.8308 2.2568,-0.8308 h 4.7803 c 0.9714,0 1.8333,0.094 2.5701,0.2821 0.7367,0.1725 1.3794,0.4702 1.9273,0.8619 0.5487,0.4079 1.0033,0.9092 1.3795,1.5201 0.3605,0.6116 0.6893,1.3328 0.9559,2.1628 l 17.2241,43.0217 h 0.2199 l 17.9134,-42.8958 c 0.3295,-0.9093 0.7056,-1.6927 1.0973,-2.3354 0.4073,-0.6427 0.8464,-1.1595 1.3165,-1.5356 0.4702,-0.3925 1.0033,-0.6583 1.5831,-0.8308 0.5798,-0.1725 1.2536,-0.251 2.0214,-0.251 h 4.9994 c 0.4547,0 0.8938,0.0629 1.3165,0.2036 0.408,0.1414 0.7523,0.3606 1.0507,0.6427 0.2977,0.2977 0.5324,0.6583 0.7049,1.0973 0.1881,0.4547 0.2821,0.987 0.2821,1.6297 z m 32.5001,0 c 0,0.2354 -0.0629,0.4546 -0.188,0.6427 -0.1252,0.1881 -0.3288,0.3295 -0.6427,0.4391 -0.2977,0.1095 -0.7049,0.188 -1.2225,0.2665 -0.5013,0.0785 -1.1284,0.1252 -1.8963,0.1252 -0.7367,0 -1.3631,-0.0467 -1.8807,-0.1252 -0.5168,-0.0785 -0.9403,-0.157 -1.238,-0.2665 -0.3132,-0.1096 -0.5331,-0.251 -0.6427,-0.4391 -0.1251,-0.1881 -0.1881,-0.4073 -0.1881,-0.6427 v -57.0323 c 0,-0.2355 0.063,-0.4547 0.2036,-0.6427 0.1415,-0.1881 0.3762,-0.3295 0.6901,-0.4391 0.3288,-0.1096 0.736,-0.1881 1.238,-0.2666 0.5013,-0.0777 1.1129,-0.1251 1.8178,-0.1251 0.7679,0 1.395,0.0474 1.8963,0.1251 0.5176,0.0785 0.9248,0.157 1.2225,0.2666 0.3139,0.1096 0.5175,0.251 0.6427,0.4391 0.1251,0.188 0.188,0.4072 0.188,0.6427 z m 69.0956,-1.6142 c 0.2354,0.6738 0.3761,1.2225 0.3917,1.6297 0.0163,0.4236 -0.1096,0.7368 -0.3443,0.9404 -0.251,0.2199 -0.6583,0.3606 -1.2225,0.4235 -0.5642,0.063 -1.3165,0.0941 -2.2724,0.0941 -0.9404,0 -1.7089,-0.0311 -2.2731,-0.0785 -0.5643,-0.0467 -0.9871,-0.1252 -1.2847,-0.2192 -0.2977,-0.1096 -0.502,-0.2666 -0.6427,-0.4391 -0.1414,-0.1881 -0.2666,-0.4228 -0.3917,-0.6893 l -5.0935,-14.466 h -24.7003 l -4.8743,14.2779 c -0.094,0.2821 -0.2192,0.5168 -0.3606,0.7049 -0.1562,0.2036 -0.3761,0.3761 -0.6738,0.5176 -0.2821,0.1251 -0.7049,0.2347 -1.238,0.2976 -0.5331,0.063 -1.2225,0.0941 -2.0843,0.0941 -0.8938,0 -1.6142,-0.0467 -2.1784,-0.1252 -0.5642,-0.0785 -0.9722,-0.2199 -1.1914,-0.4391 -0.2354,-0.2036 -0.345,-0.5175 -0.3295,-0.9403 0.0163,-0.4073 0.1414,-0.9559 0.3925,-1.6297 l 19.9192,-55.1835 c 0.1259,-0.345 0.2822,-0.6116 0.4865,-0.8307 0.2036,-0.2192 0.4857,-0.3762 0.8774,-0.5013 0.3762,-0.1259 0.8619,-0.2044 1.4735,-0.251 0.5953,-0.0474 1.3476,-0.0785 2.2724,-0.0785 0.9715,0 1.7867,0.0311 2.4294,0.0785 0.642,0.0466 1.1595,0.1251 1.5512,0.251 0.4073,0.1251 0.7057,0.2976 0.9248,0.5324 0.2192,0.2199 0.3762,0.502 0.5013,0.8463 z m -25.5777,-48.7105 h -0.0467 l -10.2343,29.6213 h 20.6567 z M 371.0613,290.8965 c 0,2.978 -0.4857,5.6577 -1.4727,8.0404 -0.9722,2.382 -2.3828,4.4197 -4.2005,6.1123 -1.8178,1.6764 -4.0591,2.9773 -6.7077,3.9021 -2.633,0.9093 -5.7991,1.3795 -9.482,1.3795 h -6.7395 v 21.3928 c 0,0.2354 -0.0785,0.4546 -0.2036,0.6427 -0.1415,0.188 -0.3606,0.3295 -0.6427,0.439 -0.2977,0.1096 -0.6894,0.1881 -1.207,0.2666 -0.5012,0.0785 -1.1284,0.1251 -1.8962,0.1251 -0.7679,0 -1.395,-0.0466 -1.9118,-0.1251 -0.502,-0.0785 -0.9093,-0.157 -1.2069,-0.2666 -0.3133,-0.1095 -0.5332,-0.251 -0.6427,-0.439 -0.1252,-0.1881 -0.1881,-0.4073 -0.1881,-0.6427 v -54.8229 c 0,-1.2225 0.3132,-2.0999 0.9559,-2.6175 0.6427,-0.5168 1.3639,-0.7833 2.1628,-0.7833 h 12.7267 c 1.2846,0 2.5071,0.0474 3.6829,0.1569 1.1906,0.1096 2.5856,0.3443 4.1842,0.6894 1.6142,0.3606 3.2446,1.0188 4.9217,1.9747 1.6608,0.9715 3.0714,2.1473 4.2472,3.5578 1.1595,1.4106 2.0532,3.0403 2.6797,4.8899 0.6271,1.8496 0.9403,3.9021 0.9403,6.1279 z m -8.3062,0.6427 c 0,-2.4138 -0.4547,-4.4352 -1.3639,-6.0494 -0.893,-1.6305 -2.0214,-2.8374 -3.3535,-3.6363 -1.332,-0.7997 -2.6959,-1.301 -4.122,-1.5046 -1.4261,-0.2191 -2.8055,-0.3295 -4.1531,-0.3295 h -7.3037 v 23.8229 h 7.1156 c 2.382,0 4.3723,-0.2976 5.9398,-0.9092 1.5831,-0.6109 2.8996,-1.4572 3.9806,-2.5546 1.0662,-1.0817 1.8807,-2.3819 2.4294,-3.9028 0.5487,-1.5046 0.8308,-3.1498 0.8308,-4.9365 z m 85.0838,38.5702 c 0.2355,0.6738 0.3762,1.2225 0.3917,1.6297 0.0163,0.4235 -0.1096,0.7367 -0.3443,0.9404 -0.251,0.2199 -0.6582,0.3606 -1.2225,0.4235 -0.5642,0.0629 -1.3165,0.094 -2.2724,0.094 -0.9403,0 -1.7089,-0.0311 -2.2731,-0.0785 -0.5642,-0.0466 -0.987,-0.1251 -1.2847,-0.2191 -0.2976,-0.1096 -0.502,-0.2666 -0.6427,-0.4391 -0.1414,-0.1881 -0.2665,-0.4228 -0.3917,-0.6894 l -5.0934,-14.4659 h -24.7004 l -4.8743,14.2779 c -0.094,0.2821 -0.2191,0.5168 -0.3606,0.7049 -0.1562,0.2036 -0.3761,0.3761 -0.6738,0.5175 -0.2821,0.1252 -0.7049,0.2348 -1.238,0.2977 -0.5331,0.0629 -1.2224,0.094 -2.0843,0.094 -0.8937,0 -1.6142,-0.0466 -2.1784,-0.1251 -0.5642,-0.0785 -0.9722,-0.2199 -1.1913,-0.4391 -0.2355,-0.2036 -0.3451,-0.5176 -0.3295,-0.9403 0.0162,-0.4073 0.1414,-0.956 0.3924,-1.6298 l 19.9193,-55.1834 c 0.1259,-0.345 0.2821,-0.6116 0.4865,-0.8308 0.2036,-0.2191 0.4857,-0.3761 0.8774,-0.5012 0.3761,-0.1259 0.8618,-0.2044 1.4734,-0.2511 0.5954,-0.0473 1.3476,-0.0784 2.2725,-0.0784 0.9714,0 1.7866,0.0311 2.4293,0.0784 0.642,0.0467 1.1596,0.1252 1.5513,0.2511 0.4072,0.1251 0.7056,0.2976 0.9248,0.5323 0.2191,0.2199 0.3761,0.502 0.5012,0.8463 z m -25.5777,-48.7105 h -0.0467 l -10.2343,29.6212 h 20.6568 z m 127.2282,50.3247 c 0,0.2354 -0.063,0.4546 -0.1881,0.6427 -0.1251,0.188 -0.3288,0.3295 -0.6427,0.439 -0.2977,0.1096 -0.6894,0.1881 -1.1595,0.2666 -0.4858,0.0785 -1.0974,0.1251 -1.8652,0.1251 -0.7049,0 -1.3165,-0.0466 -1.8178,-0.1251 -0.502,-0.0785 -0.8937,-0.157 -1.1913,-0.2666 -0.2977,-0.1095 -0.5013,-0.251 -0.6272,-0.439 -0.1096,-0.1881 -0.1718,-0.4073 -0.1718,-0.6427 v -51.7508 h -0.094 l -21.1744,51.9707 c -0.094,0.2191 -0.2191,0.4072 -0.3916,0.5642 -0.1563,0.1407 -0.4073,0.2821 -0.7205,0.3917 -0.3295,0.094 -0.7056,0.1725 -1.1603,0.2191 -0.4383,0.0474 -0.9714,0.0785 -1.583,0.0785 -0.642,0 -1.1906,-0.0311 -1.6453,-0.094 -0.4702,-0.0629 -0.8463,-0.157 -1.1595,-0.251 -0.2984,-0.1096 -0.5331,-0.2503 -0.7056,-0.3917 -0.1726,-0.157 -0.2821,-0.3288 -0.3451,-0.5168 l -20.2488,-51.9707 h -0.0466 v 51.7508 c 0,0.2354 -0.063,0.4546 -0.1881,0.6427 -0.1103,0.188 -0.3295,0.3295 -0.6427,0.439 -0.2976,0.1096 -0.6901,0.1881 -1.1914,0.2666 -0.4857,0.0785 -1.1128,0.1251 -1.8807,0.1251 -0.7367,0 -1.3476,-0.0466 -1.8333,-0.1251 -0.4865,-0.0785 -0.8782,-0.157 -1.1758,-0.2666 -0.2821,-0.1095 -0.4857,-0.251 -0.5953,-0.439 -0.1096,-0.1881 -0.157,-0.4073 -0.157,-0.6427 v -54.6504 c 0,-1.2854 0.3295,-2.1939 1.0033,-2.7426 0.6738,-0.5486 1.4261,-0.8307 2.2568,-0.8307 h 4.7803 c 0.9715,0 1.8333,0.094 2.5701,0.2821 0.7367,0.1725 1.3794,0.4701 1.9273,0.8618 0.5487,0.408 1.0033,0.9093 1.3795,1.5202 0.3606,0.6116 0.6893,1.3328 0.9559,2.1628 l 17.2241,43.0217 h 0.2199 l 17.9134,-42.8958 c 0.3295,-0.9093 0.7057,-1.6927 1.0974,-2.3354 0.4072,-0.6427 0.8463,-1.1595 1.3165,-1.5357 0.4702,-0.3924 1.0033,-0.6582 1.583,-0.8307 0.5798,-0.1725 1.2536,-0.251 2.0214,-0.251 h 4.9995 c 0.4546,0 0.8937,0.0629 1.3165,0.2036 0.408,0.1414 0.7523,0.3606 1.0507,0.6427 0.2976,0.2976 0.5323,0.6582 0.7049,1.0973 0.188,0.4546 0.2821,0.987 0.2821,1.6297 z m 50.8237,0 c 0,0.2354 -0.0629,0.4546 -0.1881,0.6427 -0.1251,0.188 -0.3287,0.3295 -0.6427,0.439 -0.2976,0.1096 -0.7049,0.1881 -1.2224,0.2666 -0.5013,0.0785 -1.1285,0.1251 -1.8963,0.1251 -0.7367,0 -1.3631,-0.0466 -1.8807,-0.1251 -0.5168,-0.0785 -0.9404,-0.157 -1.238,-0.2666 -0.3132,-0.1095 -0.5331,-0.251 -0.6427,-0.439 -0.1252,-0.1881 -0.1881,-0.4073 -0.1881,-0.6427 v -57.0324 c 0,-0.2354 0.0629,-0.4546 0.2036,-0.6427 0.1414,-0.188 0.3762,-0.3295 0.6901,-0.4391 0.3288,-0.1095 0.736,-0.188 1.238,-0.2665 0.5013,-0.0778 1.1129,-0.1251 1.8178,-0.1251 0.7678,0 1.395,0.0473 1.8963,0.1251 0.5175,0.0785 0.9248,0.157 1.2224,0.2665 0.314,0.1096 0.5176,0.2511 0.6427,0.4391 0.1252,0.1881 0.1881,0.4073 0.1881,0.6427 z m 77.812,14.5599 c 0,0.4547 -0.0155,0.8153 -0.0785,1.0974 -0.0622,0.2665 -0.1562,0.5168 -0.2502,0.7049 -0.1104,0.2043 -0.2666,0.3606 -0.4702,0.4702 -0.1881,0.094 -0.6116,0.2354 -1.2543,0.4079 -0.6427,0.1726 -1.489,0.3288 -2.5071,0.4858 -1.0189,0.1406 -2.1792,0.2191 -3.4638,0.2191 -1.4424,0 -2.7271,-0.1406 -3.8399,-0.4228 -1.1129,-0.2976 -2.0688,-0.7367 -2.8685,-1.3165 -0.7989,-0.5797 -1.3942,-1.3009 -1.7867,-2.1628 -0.4072,-0.8463 -0.5953,-1.8651 -0.5953,-3.0247 0,-1.0662 0.2355,-2.1791 0.7367,-3.3075 0.4858,-1.1284 1.3632,-2.3509 2.6641,-3.6674 l 2.8367,-2.8522 h -21.0796 c -0.7049,0 -1.3631,-0.2354 -1.9903,-0.7056 -0.6271,-0.4857 -0.9404,-1.3165 -0.9404,-2.5071 v -52.9896 c 0,-1.1906 0.3133,-2.0214 0.9404,-2.5071 0.6272,-0.4702 1.2854,-0.7056 1.9903,-0.7056 h 28.1952 c 0.251,0 0.4702,0.0629 0.6738,0.188 0.1881,0.1252 0.3606,0.3132 0.4702,0.5953 0.1258,0.2666 0.2354,0.6117 0.3139,1.0344 0.0622,0.408 0.1096,0.9249 0.1096,1.5365 0,0.5486 -0.0474,1.0343 -0.1096,1.4416 -0.0785,0.4235 -0.1881,0.7523 -0.3139,1.0188 -0.1096,0.251 -0.2821,0.4391 -0.4702,0.5642 -0.2036,0.1252 -0.4228,0.1881 -0.6738,0.1881 h -23.2269 v 18.6346 h 19.9201 c 0.251,0 0.4702,0.063 0.6738,0.1881 0.1881,0.1252 0.3606,0.2977 0.5013,0.5331 0.1414,0.2192 0.2354,0.5324 0.2984,0.9404 0.0622,0.3917 0.094,0.8774 0.094,1.4727 0,0.6116 -0.0318,1.1129 -0.094,1.5046 -0.063,0.408 -0.157,0.7367 -0.2984,0.9877 -0.1407,0.2666 -0.3132,0.4547 -0.5013,0.5798 -0.2036,0.1251 -0.4228,0.1881 -0.6738,0.1881 h -19.9201 v 21.2521 h 23.5564 c 0.5168,0 0.9085,0.251 1.1906,0.7367 0.2666,0.4857 0.408,1.2854 0.408,2.382 0,0.4391 -0.0163,0.8308 -0.0474,1.1914 -0.0311,0.3761 -0.0785,0.6893 -0.157,0.9714 -0.0777,0.2821 -0.188,0.5331 -0.3132,0.7841 -0.1407,0.2348 -0.3132,0.4702 -0.5331,0.6894 l -4.9994,4.9528 c -0.6427,0.7049 -1.0966,1.332 -1.3632,1.8652 -0.251,0.5323 -0.3917,1.081 -0.3917,1.6297 0,0.8307 0.2821,1.4416 0.8301,1.8333 0.5486,0.3924 1.4268,0.596 2.6174,0.596 h 4.9054 c 0.2199,0 0.408,0.0311 0.5805,0.0941 0.1718,0.0622 0.2977,0.1725 0.3917,0.3443 0.094,0.1725 0.1725,0.3924 0.2347,0.6901 0.063,0.2821 0.0785,0.6738 0.0785,1.175 z m 76.7302,-21.7689 c 0,0.4858 -0.0155,0.9086 -0.0473,1.2847 -0.0311,0.3606 -0.0778,0.6901 -0.1563,0.9559 -0.0785,0.2821 -0.1725,0.5331 -0.2976,0.7367 -0.1259,0.22 -0.3451,0.4858 -0.6427,0.7842 -0.314,0.3132 -0.9559,0.7678 -1.9281,1.3942 -0.987,0.6272 -2.194,1.2543 -3.6519,1.8496 -1.4572,0.5953 -3.1187,1.0974 -4.9994,1.5046 -1.8807,0.4235 -3.9495,0.6272 -6.1746,0.6272 -3.8717,0 -7.351,-0.6427 -10.4542,-1.9281 -3.1032,-1.2847 -5.7517,-3.1817 -7.9457,-5.6888 -2.1783,-2.5235 -3.871,-5.6111 -5.0468,-9.3096 -1.1751,-3.6829 -1.7711,-7.9308 -1.7711,-12.7422 0,-4.921 0.6427,-9.3095 1.9125,-13.1806 1.2691,-3.8554 3.0558,-7.1156 5.3445,-9.7952 2.3035,-2.6804 5.0461,-4.7174 8.2433,-6.1279 3.1972,-1.4105 6.7395,-2.1162 10.6261,-2.1162 1.7244,0 3.3853,0.157 5.0157,0.4858 1.6142,0.3139 3.1187,0.7211 4.4974,1.2069 1.3795,0.502 2.6019,1.0662 3.6674,1.7082 1.0663,0.6427 1.8185,1.1758 2.2258,1.583 0.4072,0.408 0.6893,0.7212 0.7997,0.9404 0.1251,0.2199 0.2347,0.4702 0.2976,0.7523 0.0785,0.2976 0.1407,0.6427 0.1881,1.0344 0.0466,0.4079 0.0785,0.8781 0.0785,1.426 0,0.6116 -0.0319,1.1285 -0.0941,1.5676 -0.0629,0.4235 -0.1569,0.7833 -0.2821,1.0817 -0.1258,0.2821 -0.2665,0.5013 -0.4391,0.642 -0.1725,0.1259 -0.3761,0.2044 -0.6116,0.2044 -0.4383,0 -1.0343,-0.2984 -1.8022,-0.8938 -0.7523,-0.5953 -1.7393,-1.2535 -2.9617,-1.9747 -1.207,-0.7212 -2.6649,-1.3794 -4.4042,-1.9748 -1.7237,-0.5953 -3.7925,-0.8929 -6.2219,-0.8929 -2.633,0 -5.0313,0.5168 -7.1785,1.5823 -2.1629,1.0507 -4.0117,2.6019 -5.5319,4.6551 -1.5364,2.0533 -2.727,4.5604 -3.5578,7.5073 -0.8463,2.9463 -1.2698,6.3315 -1.2698,10.1241 0,3.7614 0.408,7.1 1.2224,9.9841 0.7997,2.8988 1.9748,5.3126 3.4794,7.2563 1.5201,1.9429 3.3853,3.4163 5.5799,4.4041 2.2095,1.0025 4.7018,1.5046 7.491,1.5046 2.3509,0 4.4197,-0.2984 6.1753,-0.8782 1.7556,-0.5798 3.2602,-1.238 4.4982,-1.9592 1.238,-0.7204 2.2568,-1.3632 3.0558,-1.9429 0.7996,-0.5798 1.426,-0.8782 1.8807,-0.8782 0.2199,0 0.3917,0.0474 0.5486,0.1414 0.157,0.0941 0.2821,0.2666 0.3762,0.5332 0.0785,0.2502 0.157,0.6108 0.2036,1.081 0.0474,0.4546 0.0629,1.0344 0.0629,1.74 z m 45.4948,7.209 c 0,0.2354 -0.0629,0.4546 -0.188,0.6427 -0.1252,0.188 -0.3288,0.3295 -0.6427,0.439 -0.2977,0.1096 -0.7049,0.1881 -1.2225,0.2666 -0.5013,0.0785 -1.1284,0.1251 -1.8963,0.1251 -0.7367,0 -1.3631,-0.0466 -1.8807,-0.1251 -0.5168,-0.0785 -0.9403,-0.157 -1.238,-0.2666 -0.3132,-0.1095 -0.5331,-0.251 -0.6427,-0.439 -0.1251,-0.1881 -0.1881,-0.4073 -0.1881,-0.6427 v -57.0324 c 0,-0.2354 0.063,-0.4546 0.2037,-0.6427 0.1414,-0.188 0.3761,-0.3295 0.69,-0.4391 0.3288,-0.1095 0.736,-0.188 1.2381,-0.2665 0.5012,-0.0778 1.1128,-0.1251 1.8177,-0.1251 0.7679,0 1.395,0.0473 1.8963,0.1251 0.5176,0.0785 0.9248,0.157 1.2225,0.2665 0.3139,0.1096 0.5175,0.2511 0.6427,0.4391 0.1251,0.1881 0.188,0.4073 0.188,0.6427 z" style="fill:#10388c;fill-rule:evenodd;stroke:#1b1918;stroke-width:1.41729999;stroke-linecap:butt;stroke-linejoin:miter;stroke-dasharray:none"/>
</svg>
