<svg xmlns="http://www.w3.org/2000/svg" xmlns:xlink="http://www.w3.org/1999/xlink" width="260" height="260" viewBox="0 0 260 260"><defs><clipPath id="b"><rect width="260" height="260"/></clipPath></defs><g id="a" clip-path="url(#b)"><rect width="260" height="260" fill="#fff"/><g transform="translate(-283.742 -115.561)"><g transform="translate(314.742 133.62)"><path d="M238.017,252.036a10.579,10.579,0,0,0,9.938,6.781,10.331,10.331,0,1,0,0-20.656,10.577,10.577,0,0,0-9.938,6.781H223.252V227.5c-4.066.412-8.116.972-12.126,1.715v44.753l-14.745,8.3c2.377,3.117,4.628,6.395,6.911,9.762l16.415-9.241,14.417,8.239a10.137,10.137,0,0,0-.119,1.463A10.6,10.6,0,1,0,244.6,282.162a10.7,10.7,0,0,0-7.025,2.612l-14.322-8.185V252.036Z" transform="translate(-67.158 -133.198)" fill="#00aed0" fill-rule="evenodd"/><path d="M83.025,232.234q-6.063-1.106-12.127-2.327v15.6H56.133a10.576,10.576,0,0,0-9.937-6.781,10.331,10.331,0,1,0,0,20.656,10.577,10.577,0,0,0,9.937-6.781H70.9v24.554l-14.322,8.185a10.7,10.7,0,0,0-7.025-2.612,10.331,10.331,0,1,0,10.592,10.327,10.075,10.075,0,0,0-.119-1.463l14.417-8.239,15.4,8.668a112.528,112.528,0,0,1,10.581-7.7l-17.4-9.793Z" transform="translate(-29.579 -133.761)" fill="#ee7304" fill-rule="evenodd"/><path d="M111.65,173.815l-9.455,5.322-9.1-13.392a10.129,10.129,0,0,0,2.468-6.623,10.6,10.6,0,1,0-10.592,10.327,10.945,10.945,0,0,0,1.8-.16l9.11,13.4-23.2,13.059L48.521,181.942a10.065,10.065,0,0,0,.406-2.8,10.6,10.6,0,1,0-10.592,10.328,10.739,10.739,0,0,0,5.9-1.75L69.061,201.9v9.044q6.063,1.233,12.126,2.327v-8.661l35.792-20.148a108.823,108.823,0,0,0-5.33-10.653Z" transform="translate(-27.742 -114.802)" fill="#d10d80" fill-rule="evenodd"/><path d="M183.043,325.527a10.82,10.82,0,0,0-2.459.291l-9.195-13.527,6.322-3.558c-2.283-3.368-4.535-6.646-6.911-9.762L140.283,316.15l-27.864-15.685a112.544,112.544,0,0,0-10.581,7.7l7.337,4.13-9.194,13.527a10.826,10.826,0,0,0-2.459-.291,10.331,10.331,0,1,0,10.592,10.327,10.094,10.094,0,0,0-2.071-6.115l9.445-13.894,21.155,11.908v25.261a10.341,10.341,0,0,0-6.955,9.69,10.6,10.6,0,0,0,21.187,0,10.34,10.34,0,0,0-6.956-9.689V327.754l21.155-11.908,9.445,13.894a10.1,10.1,0,0,0-2.07,6.115,10.6,10.6,0,1,0,10.593-10.327Z" transform="translate(-41.576 -149.903)" fill="#ffce00" fill-rule="evenodd"/><path d="M240.157,158.442a10.462,10.462,0,0,0-10.592,10.328,10.067,10.067,0,0,0,.406,2.8l-24.162,13.808-23.2-13.059,9.111-13.4a10.907,10.907,0,0,0,1.8.16,10.331,10.331,0,1,0-10.593-10.327,10.132,10.132,0,0,0,2.47,6.623l-9.1,13.392-20.614-11.6V124.45a10.339,10.339,0,0,0,6.956-9.689,10.6,10.6,0,0,0-21.187,0,10.341,10.341,0,0,0,6.955,9.689v32.714l-11.16,6.282a108.667,108.667,0,0,1,5.329,10.653l9.469-5.33L197.3,194.247v6.2c4.011-.742,8.06-1.3,12.126-1.715v-7.2l24.827-14.189a10.73,10.73,0,0,0,5.9,1.751,10.331,10.331,0,1,0,0-20.655Z" transform="translate(-53.336 -104.434)" fill="#10388c" fill-rule="evenodd"/><path d="M167.171,265.813H136.624V236.03h30.547Z" transform="translate(-53.191 -135.192)" fill="#a6c500" fill-rule="evenodd"/></g></g></g></svg>