<?xml version="1.0" standalone="no"?>
<!DOCTYPE svg PUBLIC "-//W3C//DTD SVG 20010904//EN"
 "http://www.w3.org/TR/2001/REC-SVG-20010904/DTD/svg10.dtd">
<svg version="1.0" xmlns="http://www.w3.org/2000/svg"
 width="2363.000000pt" height="2363.000000pt" viewBox="0 0 2363.000000 2363.000000"
 preserveAspectRatio="xMidYMid meet">
<metadata>
Created by potrace 1.11, written by Peter Selinger 2001-2013
</metadata>
<g transform="translate(0.000000,2363.000000) scale(0.100000,-0.100000)"
fill="#000000" stroke="none">
<path d="M4509 23626 c-2 -2 -56 -7 -119 -10 -63 -4 -124 -9 -135 -11 -11 -2
-47 -7 -80 -10 -33 -3 -71 -7 -85 -9 -14 -3 -43 -7 -65 -11 -38 -5 -176 -29
-240 -41 -16 -3 -77 -17 -135 -31 -58 -14 -112 -26 -120 -28 -8 -2 -62 -18
-120 -35 -58 -17 -109 -32 -115 -34 -5 -2 -17 -6 -25 -9 -8 -3 -40 -13 -70
-22 -30 -10 -68 -23 -85 -30 -16 -7 -84 -34 -150 -60 -196 -78 -389 -171 -558
-269 -49 -28 -100 -57 -114 -64 -53 -29 -303 -199 -398 -271 -307 -232 -588
-503 -831 -801 -75 -93 -219 -287 -266 -360 -109 -169 -241 -390 -233 -390 2
0 -9 -23 -25 -51 -29 -48 -51 -93 -120 -244 -39 -87 -128 -306 -145 -360 -70
-220 -88 -277 -109 -358 -32 -119 -60 -247 -85 -389 -20 -113 -24 -138 -36
-233 -12 -98 -14 -111 -22 -205 -10 -123 -11 -14800 0 -14945 4 -60 10 -117
12 -125 2 -8 6 -42 10 -75 5 -53 10 -84 21 -147 1 -9 6 -38 10 -65 25 -177
115 -529 189 -743 213 -617 564 -1201 1010 -1679 99 -106 270 -272 351 -341
16 -14 45 -38 65 -55 19 -16 52 -43 73 -60 21 -16 48 -38 60 -49 11 -10 50
-39 86 -64 36 -26 67 -49 70 -53 13 -16 260 -175 390 -250 284 -164 570 -293
875 -395 164 -54 372 -110 520 -140 86 -17 124 -24 150 -29 17 -3 41 -7 55 -9
39 -7 180 -26 235 -31 28 -3 66 -7 85 -10 123 -16 986 -19 7530 -18 6534 0
7439 2 7545 18 31 5 77 10 180 21 33 3 63 8 67 10 4 3 24 7 45 9 50 5 75 10
218 40 66 14 131 28 145 31 14 2 58 14 98 25 40 11 81 22 90 24 86 18 460 154
607 220 124 55 352 170 413 207 34 21 65 38 68 38 3 0 32 18 65 40 33 22 63
40 66 40 14 0 362 249 445 319 189 157 225 190 372 336 220 219 395 429 567
680 58 85 181 280 192 305 4 8 17 31 29 50 42 70 188 368 241 495 147 352 282
846 313 1148 4 34 8 64 9 67 2 3 7 41 12 85 10 99 11 15104 1 15195 -11 94
-18 142 -23 170 -2 14 -7 48 -10 75 -4 28 -8 57 -10 65 -2 8 -7 31 -10 50 -23
140 -126 541 -155 605 -5 11 -16 45 -26 75 -19 62 -96 261 -140 360 -40 91
-168 345 -204 405 -16 28 -36 61 -43 75 -39 75 -200 318 -295 445 -258 344
-624 709 -956 955 -178 131 -468 320 -492 320 -4 0 -15 6 -23 14 -25 23 -342
178 -486 239 -280 117 -659 233 -910 277 -27 5 -86 16 -130 24 -44 8 -105 17
-135 20 -30 3 -64 8 -75 10 -11 2 -56 7 -100 11 -44 4 -91 10 -105 13 -26 7
-14763 15 -14771 8z m7338 -3034 c52 -430 211 -1009 398 -1447 370 -864 930
-1590 1690 -2190 102 -80 352 -255 366 -255 5 0 9 -3 9 -8 0 -4 8 -12 19 -17
10 -6 79 -46 152 -91 74 -44 163 -96 199 -116 36 -19 74 -40 85 -46 70 -40
376 -180 515 -235 217 -86 515 -184 677 -222 10 -3 38 -9 63 -16 54 -13 76
-18 115 -24 17 -3 44 -10 60 -15 17 -4 59 -13 95 -19 36 -6 76 -13 90 -16 14
-3 39 -7 55 -9 17 -2 59 -9 95 -14 69 -11 118 -17 215 -27 33 -4 76 -8 95 -10
214 -24 722 -24 965 0 100 10 170 17 189 20 12 2 44 6 71 10 28 3 66 9 85 11
56 8 198 34 300 55 52 12 105 23 118 25 136 27 650 183 680 206 6 6 12 8 12 5
0 -3 48 15 107 39 58 24 108 44 110 44 3 0 -58 -50 -134 -112 -136 -110 -164
-134 -291 -253 -261 -243 -548 -567 -720 -812 -255 -364 -431 -671 -577 -1008
-26 -60 -56 -129 -66 -152 -11 -24 -19 -49 -19 -56 0 -7 -4 -17 -9 -23 -24
-26 -165 -465 -211 -659 -30 -123 -78 -356 -86 -410 -2 -16 -6 -41 -9 -54 -2
-13 -7 -49 -11 -80 -3 -31 -8 -64 -10 -75 -2 -10 -6 -44 -9 -75 -4 -31 -8 -67
-10 -81 -28 -193 -28 -900 0 -1130 1 -14 6 -50 9 -80 29 -247 72 -478 138
-735 46 -182 146 -493 198 -620 92 -221 125 -296 193 -435 44 -91 112 -219
150 -285 38 -66 78 -136 89 -155 55 -95 315 -470 361 -520 7 -8 40 -49 72 -90
33 -41 62 -77 65 -80 4 -3 37 -41 75 -85 37 -44 152 -163 254 -265 191 -189
210 -207 318 -297 35 -29 69 -58 77 -65 7 -8 47 -40 90 -72 42 -32 76 -60 76
-62 0 -1 -44 15 -97 37 -139 57 -495 179 -563 193 -8 1 -35 8 -60 15 -25 7
-52 15 -60 17 -141 32 -329 74 -349 78 -31 5 -85 14 -126 21 -16 3 -43 8 -60
10 -85 12 -131 18 -145 20 -104 12 -142 16 -180 20 -279 27 -815 27 -1050 0
-19 -3 -60 -7 -90 -10 -88 -10 -285 -39 -340 -50 -14 -3 -41 -8 -60 -11 -19
-3 -84 -16 -145 -30 -60 -14 -121 -27 -134 -30 -14 -3 -28 -7 -31 -9 -4 -2
-21 -7 -38 -10 -87 -15 -423 -122 -622 -198 -174 -66 -514 -225 -680 -318
-207 -115 -542 -333 -670 -436 -318 -254 -344 -277 -560 -493 -167 -167 -232
-237 -342 -369 -23 -27 -135 -170 -159 -201 -71 -94 -97 -132 -181 -256 -88
-131 -139 -212 -186 -294 -11 -19 -36 -64 -57 -100 -71 -124 -233 -466 -298
-630 -152 -382 -265 -787 -322 -1150 -4 -25 -9 -54 -11 -65 -2 -11 -7 -42 -10
-69 -12 -96 -20 -107 -28 -36 -8 80 -13 112 -33 220 -8 47 -17 96 -19 110 -2
14 -8 43 -13 65 -17 73 -33 140 -36 155 -9 42 -49 195 -72 270 -162 548 -401
1058 -716 1529 -71 106 -283 390 -334 447 -15 17 -46 53 -68 79 -101 120 -326
351 -470 482 -627 568 -1394 993 -2207 1224 -60 16 -116 32 -125 34 -10 3 -56
14 -103 25 -87 21 -254 56 -313 65 -17 3 -43 7 -57 10 -31 6 -71 12 -130 20
-25 3 -56 8 -70 10 -14 2 -55 7 -92 10 -37 3 -75 7 -85 9 -139 27 -835 27
-1043 2 -14 -2 -55 -7 -92 -10 -37 -4 -77 -9 -90 -11 -13 -2 -45 -6 -73 -10
-94 -12 -120 -16 -135 -20 -8 -2 -37 -7 -65 -11 -27 -3 -53 -8 -56 -10 -4 -2
-24 -6 -45 -10 -22 -3 -77 -15 -124 -25 -47 -11 -96 -22 -110 -25 -129 -26
-491 -140 -680 -214 -85 -34 -162 -64 -170 -67 -8 -3 -4 3 10 13 14 10 27 20
30 23 3 4 39 33 80 65 157 125 274 231 450 406 118 117 166 168 274 290 12 14
61 72 108 130 328 404 597 849 793 1310 15 36 33 79 41 95 99 231 248 728 298
995 3 14 9 48 15 77 6 29 13 74 16 100 4 26 8 55 10 63 2 8 7 38 10 65 4 28 8
61 11 75 2 14 7 56 10 93 3 37 7 77 9 88 19 99 28 705 12 904 -10 143 -16 203
-23 260 -3 28 -8 64 -10 80 -12 105 -16 134 -24 165 -5 19 -11 53 -14 75 -22
174 -110 526 -197 785 -269 811 -715 1535 -1319 2141 -195 196 -302 293 -465
424 -60 48 -114 92 -120 97 -10 9 8 3 167 -61 147 -58 559 -188 652 -205 12
-2 39 -9 61 -14 54 -15 226 -50 300 -62 33 -5 69 -12 80 -14 11 -2 43 -7 70
-10 28 -4 61 -8 75 -11 14 -2 46 -7 73 -10 26 -3 66 -7 90 -10 274 -33 804
-38 1062 -11 17 2 62 6 100 10 39 4 81 9 95 11 14 2 48 6 75 10 89 11 178 26
300 50 39 8 85 17 104 20 19 3 37 8 41 10 4 2 22 7 41 10 122 21 427 112 649
193 295 107 701 297 887 415 24 15 45 27 47 27 15 0 336 213 471 313 96 71
246 190 295 233 126 112 176 158 265 244 89 86 227 230 316 330 130 146 358
452 481 643 78 121 236 396 272 472 7 17 39 82 69 146 90 188 190 434 242 594
58 180 111 362 140 485 7 31 37 166 41 190 3 14 11 57 19 95 8 39 19 106 26
150 6 44 13 87 14 95 2 8 4 28 4 44 1 35 14 27 18 -12z"/>
<path d="M11828 15765 c-2 -1 -52 -5 -113 -9 -60 -3 -125 -10 -143 -15 -18 -5
-35 -10 -37 -10 -48 3 -238 -54 -362 -107 -83 -35 -107 -48 -185 -93 -65 -37
-158 -90 -393 -226 -132 -76 -294 -169 -360 -208 -66 -38 -140 -81 -165 -95
-25 -14 -74 -42 -109 -64 -34 -21 -64 -38 -66 -38 -3 0 -191 -108 -225 -130
-8 -5 -37 -21 -65 -36 -27 -14 -57 -32 -66 -40 -8 -8 -18 -14 -22 -14 -3 0
-83 -45 -177 -100 -94 -55 -173 -100 -174 -100 -11 0 -250 -149 -300 -187
-339 -259 -573 -641 -642 -1052 -3 -18 -8 -43 -10 -55 -2 -11 -7 -52 -10 -91
-9 -93 -9 -2483 0 -2560 11 -98 16 -139 21 -155 2 -8 7 -29 10 -46 7 -43 50
-189 75 -256 34 -92 115 -243 187 -351 82 -121 271 -316 389 -400 68 -48 281
-176 464 -279 25 -14 59 -34 77 -44 17 -10 103 -60 190 -110 87 -50 289 -167
448 -259 160 -92 308 -177 330 -190 33 -19 198 -114 320 -185 329 -191 368
-212 485 -262 125 -54 304 -100 449 -115 123 -13 432 -6 460 11 3 2 27 7 53
10 68 9 239 62 338 104 47 20 175 87 284 150 109 63 213 122 230 132 17 9 76
43 131 75 55 32 185 107 289 167 414 239 785 453 861 498 44 26 98 57 120 69
22 12 56 31 75 42 19 12 78 46 130 76 195 114 340 235 480 404 172 206 319
526 355 774 3 22 9 65 15 95 5 32 9 601 8 1340 l0 1285 -23 122 c-85 450 -325
830 -685 1085 -59 42 -425 258 -436 258 -3 0 -25 14 -49 30 -24 17 -46 30 -49
30 -3 0 -43 22 -88 49 -46 27 -100 58 -120 70 -77 43 -462 266 -536 310 -29
17 -55 31 -57 31 -3 0 -29 16 -59 35 -30 19 -58 35 -61 35 -3 0 -22 11 -43 24
-94 60 -663 383 -729 413 -72 33 -254 97 -303 107 -14 2 -47 9 -75 15 -87 19
-108 21 -205 27 -52 3 -103 7 -112 8 -9 2 -18 3 -20 1z"/>
</g>
</svg>
