<?xml version="1.0" standalone="no"?>
<!DOCTYPE svg PUBLIC "-//W3C//DTD SVG 20010904//EN"
 "http://www.w3.org/TR/2001/REC-SVG-20010904/DTD/svg10.dtd">
<svg version="1.0" xmlns="http://www.w3.org/2000/svg"
 width="700.000000pt" height="700.000000pt" viewBox="0 0 700.000000 700.000000"
 preserveAspectRatio="xMidYMid meet">
<metadata>
Created by potrace 1.11, written by Peter Selinger 2001-2013
</metadata>
<g transform="translate(0.000000,700.000000) scale(0.100000,-0.100000)"
fill="#000000" stroke="none">
<path d="M3394 6494 c-139 -51 -219 -219 -169 -351 21 -55 92 -135 135 -153
l30 -12 0 -443 0 -443 -147 -83 c-82 -46 -164 -92 -183 -102 -19 -11 -77 -43
-127 -73 l-93 -53 -83 122 c-47 67 -101 148 -122 180 l-38 57 29 53 c25 45 29
62 29 132 0 67 -5 88 -27 131 -49 93 -126 144 -229 152 -258 18 -406 -275
-234 -466 56 -62 120 -93 200 -97 l60 -3 122 -178 c68 -97 122 -178 120 -179
-10 -8 -599 -336 -611 -341 -10 -4 -135 61 -336 176 l-320 182 -1 77 c-1 131
-47 209 -152 261 -60 29 -73 32 -139 28 -85 -5 -136 -26 -191 -81 -104 -104
-107 -276 -8 -390 75 -85 219 -116 324 -69 l48 21 334 -190 335 -190 0 -335 0
-334 -199 0 -199 0 -26 44 c-54 92 -133 135 -247 136 -119 0 -195 -46 -252
-154 -31 -58 -31 -174 0 -232 57 -108 133 -154 252 -154 114 1 193 44 247 136
l26 44 199 0 199 0 0 -334 0 -335 -195 -111 -195 -111 -26 20 c-98 77 -271 59
-356 -38 -49 -55 -68 -107 -68 -187 0 -114 48 -191 154 -247 31 -16 59 -22
116 -22 65 0 82 4 128 29 90 50 142 137 142 235 l0 47 196 112 196 112 205
-115 c113 -63 206 -115 208 -115 2 0 50 35 107 78 57 43 118 87 136 97 18 11
32 22 32 25 0 3 -104 63 -230 134 l-230 129 0 686 0 686 586 330 c323 182 598
336 613 343 25 13 34 9 156 -60 155 -88 266 -151 733 -413 l352 -198 -2 -690
-3 -690 -135 -76 c-74 -42 -161 -91 -192 -108 l-57 -33 90 -128 91 -129 220
124 219 124 195 -111 194 -111 0 -43 c0 -159 125 -287 280 -285 118 1 199 50
249 149 125 250 -139 504 -385 371 l-55 -30 -195 111 -194 112 0 333 0 333
204 0 204 0 12 -30 c7 -16 28 -46 48 -66 106 -109 292 -114 401 -11 108 103
108 291 0 394 -109 103 -293 98 -401 -11 -20 -21 -42 -51 -48 -67 l-12 -29
-204 0 -204 0 1 228 c1 125 4 276 8 337 l6 109 329 188 329 189 46 -22 c33
-16 66 -22 116 -23 194 -2 325 172 271 359 -24 81 -100 157 -181 181 -199 57
-392 -94 -372 -291 l5 -51 -315 -179 c-174 -99 -321 -181 -328 -183 -19 -4
-626 340 -622 352 3 6 57 89 122 183 111 165 118 172 145 167 41 -9 132 21
181 59 23 17 56 57 73 87 27 48 31 65 31 130 0 82 -21 138 -73 193 -78 84
-217 107 -324 54 -149 -73 -199 -263 -107 -398 l18 -26 -122 -181 -122 -180
-65 36 c-36 21 -161 91 -278 157 l-212 119 0 442 0 441 40 18 c23 10 55 34 72
54 124 141 83 346 -85 433 -54 27 -165 34 -223 12z"/>
</g>
</svg>
